# xmcd
#
# Track frame offsets:
#	150
#	13767
#	23399
#	38682
#	44663
#	64809
#	79793
#	91966
#	107207
#	115039
#	127294
#	135966
#	153871
#	173082
#	179225
#	193979
#	211763
#	224473
#
# Disc length: 3173 seconds
#
# Revision: 0
# Processed by: cddbd v1.5.2PL0 Copyright (c) Steve Scherf et al.
# Submitted via: dBpowerAMP V4.0
#
DISCID=fb0c6312
DTITLE=NYC Blues Devils - Hell Yeah
DYEAR=2006
DGENRE=Blues
TTITLE0=Girls
TTITLE1=Hell Yeah
TTITLE2=Is You Is or Is You Ain't
TTITLE3=Show and Tell
TTITLE4=Me and My Gin
TTITLE5=I Don't Love You
TTITLE6=Koo Koo Land
TTITLE7=Black Cloud
TTITLE8=Your Man
TTITLE9=Me Myself and I
TTITLE10=You'll be Mine
TTITLE11=Day After Day
TTITLE12=Minnie The Moocher
TTITLE13=Nagasaki
TTITLE14=I'm a King Bee
TTITLE15=Here I Go
TTITLE16=Give Me Back My Wig
TTITLE17=Dream a Little Dream of Me
EXTD=
EXTT0=
EXTT1=
EXTT2=
EXTT3=
EXTT4=
EXTT5=
EXTT6=
EXTT7=
EXTT8=
EXTT9=
EXTT10=
EXTT11=
EXTT12=
EXTT13=
EXTT14=
EXTT15=
EXTT16=
EXTT17=
PLAYORDER=
